<?xml version="1.0" encoding="utf-8"?>
<!-- Generator: Adobe Illustrator 16.0.0, SVG Export Plug-In . SVG Version: 6.00 Build 0)  -->
<!DOCTYPE svg PUBLIC "-//W3C//DTD SVG 1.1//EN" "http://www.w3.org/Graphics/SVG/1.1/DTD/svg11.dtd">
<svg version="1.1" id="Livello_1" xmlns="http://www.w3.org/2000/svg" xmlns:xlink="http://www.w3.org/1999/xlink" x="0px" y="0px"
	 width="171.751px" height="170.057px" viewBox="0 0 171.751 170.057" enable-background="new 0 0 171.751 170.057"
	 xml:space="preserve">
<g display="none">
	
		<ellipse display="inline" fill="#FFFFFF" stroke="#1D1D1B" stroke-width="2" stroke-miterlimit="10" cx="85.668" cy="84.155" rx="120.47" ry="61.409"/>
	<g display="inline">
		<line fill="none" stroke="#1D1D1B" stroke-width="2" stroke-miterlimit="10" x1="63.185" y1="10.268" x2="85.668" y2="22.746"/>
		<line fill="none" stroke="#1D1D1B" stroke-width="2" stroke-miterlimit="10" x1="63.185" y1="35.223" x2="85.668" y2="22.746"/>
	</g>
	<g display="inline">
		<line fill="none" stroke="#1D1D1B" stroke-width="2" stroke-miterlimit="10" x1="85.668" y1="10.268" x2="108.151" y2="22.746"/>
		<line fill="none" stroke="#1D1D1B" stroke-width="2" stroke-miterlimit="10" x1="85.668" y1="35.223" x2="108.151" y2="22.746"/>
	</g>
	<g display="inline">
		
			<line fill="none" stroke="#1D1D1B" stroke-width="2" stroke-miterlimit="10" x1="108.151" y1="133.087" x2="85.668" y2="145.564"/>
		
			<line fill="none" stroke="#1D1D1B" stroke-width="2" stroke-miterlimit="10" x1="108.151" y1="158.042" x2="85.668" y2="145.564"/>
	</g>
	<g display="inline">
		<line fill="none" stroke="#1D1D1B" stroke-width="2" stroke-miterlimit="10" x1="85.668" y1="133.087" x2="63.185" y2="145.564"/>
		<line fill="none" stroke="#1D1D1B" stroke-width="2" stroke-miterlimit="10" x1="85.668" y1="158.042" x2="63.185" y2="145.564"/>
	</g>
</g>
<g display="none">
	
		<ellipse display="inline" fill="#FFFFFF" stroke="#1D1D1B" stroke-width="2" stroke-miterlimit="10" cx="85.984" cy="83.776" rx="120.47" ry="61.408"/>
	<g display="inline">
		<line fill="none" stroke="#1D1D1B" stroke-width="2" stroke-miterlimit="10" x1="63.501" y1="9.889" x2="85.984" y2="22.367"/>
		<line fill="none" stroke="#1D1D1B" stroke-width="2" stroke-miterlimit="10" x1="63.501" y1="34.844" x2="85.984" y2="22.367"/>
	</g>
	<g display="inline">
		<line fill="none" stroke="#1D1D1B" stroke-width="2" stroke-miterlimit="10" x1="85.984" y1="9.889" x2="108.466" y2="22.367"/>
		<line fill="none" stroke="#1D1D1B" stroke-width="2" stroke-miterlimit="10" x1="85.984" y1="34.844" x2="108.466" y2="22.367"/>
	</g>
	<g display="inline">
		
			<line fill="none" stroke="#1D1D1B" stroke-width="2" stroke-miterlimit="10" x1="108.466" y1="132.708" x2="85.984" y2="145.185"/>
		
			<line fill="none" stroke="#1D1D1B" stroke-width="2" stroke-miterlimit="10" x1="108.466" y1="157.663" x2="85.984" y2="145.185"/>
	</g>
	<g display="inline">
		<line fill="none" stroke="#1D1D1B" stroke-width="2" stroke-miterlimit="10" x1="85.984" y1="132.708" x2="63.501" y2="145.185"/>
		<line fill="none" stroke="#1D1D1B" stroke-width="2" stroke-miterlimit="10" x1="85.984" y1="157.663" x2="63.501" y2="145.185"/>
	</g>
</g>
<g>
	<g>
		<line fill="none" stroke="#1D1D1B" stroke-width="2" stroke-miterlimit="10" x1="108.548" y1="3.399" x2="86.066" y2="15.876"/>
		<line fill="none" stroke="#1D1D1B" stroke-width="2" stroke-miterlimit="10" x1="108.548" y1="28.354" x2="86.066" y2="15.876"/>
	</g>
	<g>
		<line fill="none" stroke="#1D1D1B" stroke-width="2" stroke-miterlimit="10" x1="86.066" y1="3.399" x2="63.583" y2="15.876"/>
		<line fill="none" stroke="#1D1D1B" stroke-width="2" stroke-miterlimit="10" x1="86.066" y1="28.354" x2="63.583" y2="15.876"/>
	</g>
	<g>
		
			<line fill="none" stroke="#1D1D1B" stroke-width="2" stroke-miterlimit="10" x1="108.548" y1="141.654" x2="86.066" y2="154.131"/>
		
			<line fill="none" stroke="#1D1D1B" stroke-width="2" stroke-miterlimit="10" x1="108.548" y1="166.609" x2="86.066" y2="154.131"/>
	</g>
	<g>
		<line fill="none" stroke="#1D1D1B" stroke-width="2" stroke-miterlimit="10" x1="86.066" y1="141.654" x2="63.583" y2="154.131"/>
		<line fill="none" stroke="#1D1D1B" stroke-width="2" stroke-miterlimit="10" x1="86.066" y1="166.609" x2="63.583" y2="154.131"/>
	</g>
	<g>
		<line fill="none" stroke="#1D1D1B" stroke-width="2" stroke-miterlimit="10" x1="29.416" y1="107.488" x2="16.938" y2="85.005"/>
		<line fill="none" stroke="#1D1D1B" stroke-width="2" stroke-miterlimit="10" x1="4.46" y1="107.488" x2="16.938" y2="85.005"/>
	</g>
	<g>
		<line fill="none" stroke="#1D1D1B" stroke-width="2" stroke-miterlimit="10" x1="29.416" y1="85.005" x2="16.938" y2="62.521"/>
		<line fill="none" stroke="#1D1D1B" stroke-width="2" stroke-miterlimit="10" x1="4.46" y1="85.005" x2="16.938" y2="62.521"/>
	</g>
	<g>
		<g>
			
				<line fill="none" stroke="#1D1D1B" stroke-width="2" stroke-miterlimit="10" x1="167.669" y1="107.488" x2="155.193" y2="85.005"/>
			
				<line fill="none" stroke="#1D1D1B" stroke-width="2" stroke-miterlimit="10" x1="142.715" y1="107.488" x2="155.193" y2="85.005"/>
		</g>
		<g>
			
				<line fill="none" stroke="#1D1D1B" stroke-width="2" stroke-miterlimit="10" x1="167.669" y1="85.005" x2="155.193" y2="62.521"/>
			
				<line fill="none" stroke="#1D1D1B" stroke-width="2" stroke-miterlimit="10" x1="142.715" y1="85.005" x2="155.193" y2="62.521"/>
		</g>
	</g>
	
		<rect x="16.938" y="15.876" fill="none" stroke="#1D1D1B" stroke-width="2" stroke-miterlimit="10" width="138.255" height="138.254"/>
	<circle fill="#FFFFFF" stroke="#1D1D1B" stroke-width="2" stroke-miterlimit="10" cx="155.193" cy="15.876" r="10.738"/>
	<circle fill="#FFFFFF" stroke="#1D1D1B" stroke-width="2" stroke-miterlimit="10" cx="16.938" cy="15.876" r="10.738"/>
	<circle fill="#FFFFFF" stroke="#1D1D1B" stroke-width="2" stroke-miterlimit="10" cx="16.938" cy="154.131" r="10.738"/>
	<circle fill="#FFFFFF" stroke="#1D1D1B" stroke-width="2" stroke-miterlimit="10" cx="155.193" cy="154.131" r="10.738"/>
</g>
</svg>
