<?xml version="1.0" encoding="UTF-8" standalone="no"?>
<!-- Generator: Adobe Illustrator 16.0.0, SVG Export Plug-In . SVG Version: 6.00 Build 0)  -->

<svg
   xmlns:dc="http://purl.org/dc/elements/1.1/"
   xmlns:cc="http://creativecommons.org/ns#"
   xmlns:rdf="http://www.w3.org/1999/02/22-rdf-syntax-ns#"
   xmlns:svg="http://www.w3.org/2000/svg"
   xmlns="http://www.w3.org/2000/svg"
   xmlns:sodipodi="http://sodipodi.sourceforge.net/DTD/sodipodi-0.dtd"
   xmlns:inkscape="http://www.inkscape.org/namespaces/inkscape"
   version="1.1"
   id="Livello_1"
   x="0px"
   y="0px"
   width="171.751px"
   height="170.057px"
   viewBox="0 0 171.751 170.057"
   enable-background="new 0 0 171.751 170.057"
   xml:space="preserve"
   inkscape:version="0.91 r13725"
   sodipodi:docname="3-01.svg"><metadata
     id="metadata4720"><rdf:RDF><cc:Work
         rdf:about=""><dc:format>image/svg+xml</dc:format><dc:type
           rdf:resource="http://purl.org/dc/dcmitype/StillImage" /><dc:title></dc:title></cc:Work></rdf:RDF></metadata><defs
     id="defs4718" /><sodipodi:namedview
     pagecolor="#ffffff"
     bordercolor="#666666"
     borderopacity="1"
     objecttolerance="10"
     gridtolerance="10"
     guidetolerance="10"
     inkscape:pageopacity="0"
     inkscape:pageshadow="2"
     inkscape:window-width="1892"
     inkscape:window-height="1024"
     id="namedview4716"
     showgrid="false"
     inkscape:zoom="3.5842454"
     inkscape:cx="112.43305"
     inkscape:cy="88.729262"
     inkscape:window-x="12"
     inkscape:window-y="40"
     inkscape:window-maximized="1"
     inkscape:current-layer="Livello_1" /><g
     display="none"
     id="g4598"><ellipse
       display="inline"
       fill="#FFFFFF"
       stroke="#1D1D1B"
       stroke-width="2"
       stroke-miterlimit="10"
       cx="85.668"
       cy="84.155"
       rx="120.47"
       ry="61.409"
       id="ellipse4600" /><g
       display="inline"
       id="g4602"><line
         fill="none"
         stroke="#1D1D1B"
         stroke-width="2"
         stroke-miterlimit="10"
         x1="63.185"
         y1="10.268"
         x2="85.668"
         y2="22.746"
         id="line4604" /><line
         fill="none"
         stroke="#1D1D1B"
         stroke-width="2"
         stroke-miterlimit="10"
         x1="63.185"
         y1="35.223"
         x2="85.668"
         y2="22.746"
         id="line4606" /></g><g
       display="inline"
       id="g4608"><line
         fill="none"
         stroke="#1D1D1B"
         stroke-width="2"
         stroke-miterlimit="10"
         x1="85.668"
         y1="10.268"
         x2="108.151"
         y2="22.746"
         id="line4610" /><line
         fill="none"
         stroke="#1D1D1B"
         stroke-width="2"
         stroke-miterlimit="10"
         x1="85.668"
         y1="35.223"
         x2="108.151"
         y2="22.746"
         id="line4612" /></g><g
       display="inline"
       id="g4614"><line
         fill="none"
         stroke="#1D1D1B"
         stroke-width="2"
         stroke-miterlimit="10"
         x1="108.151"
         y1="133.087"
         x2="85.668"
         y2="145.564"
         id="line4616" /><line
         fill="none"
         stroke="#1D1D1B"
         stroke-width="2"
         stroke-miterlimit="10"
         x1="108.151"
         y1="158.042"
         x2="85.668"
         y2="145.564"
         id="line4618" /></g><g
       display="inline"
       id="g4620"><line
         fill="none"
         stroke="#1D1D1B"
         stroke-width="2"
         stroke-miterlimit="10"
         x1="85.668"
         y1="133.087"
         x2="63.185"
         y2="145.564"
         id="line4622" /><line
         fill="none"
         stroke="#1D1D1B"
         stroke-width="2"
         stroke-miterlimit="10"
         x1="85.668"
         y1="158.042"
         x2="63.185"
         y2="145.564"
         id="line4624" /></g></g><g
     display="none"
     id="g4626"><ellipse
       display="inline"
       fill="#FFFFFF"
       stroke="#1D1D1B"
       stroke-width="2"
       stroke-miterlimit="10"
       cx="85.984"
       cy="83.776"
       rx="120.47"
       ry="61.408"
       id="ellipse4628" /><g
       display="inline"
       id="g4630"><line
         fill="none"
         stroke="#1D1D1B"
         stroke-width="2"
         stroke-miterlimit="10"
         x1="63.501"
         y1="9.889"
         x2="85.984"
         y2="22.367"
         id="line4632" /><line
         fill="none"
         stroke="#1D1D1B"
         stroke-width="2"
         stroke-miterlimit="10"
         x1="63.501"
         y1="34.844"
         x2="85.984"
         y2="22.367"
         id="line4634" /></g><g
       display="inline"
       id="g4636"><line
         fill="none"
         stroke="#1D1D1B"
         stroke-width="2"
         stroke-miterlimit="10"
         x1="85.984"
         y1="9.889"
         x2="108.466"
         y2="22.367"
         id="line4638" /><line
         fill="none"
         stroke="#1D1D1B"
         stroke-width="2"
         stroke-miterlimit="10"
         x1="85.984"
         y1="34.844"
         x2="108.466"
         y2="22.367"
         id="line4640" /></g><g
       display="inline"
       id="g4642"><line
         fill="none"
         stroke="#1D1D1B"
         stroke-width="2"
         stroke-miterlimit="10"
         x1="108.466"
         y1="132.708"
         x2="85.984"
         y2="145.185"
         id="line4644" /><line
         fill="none"
         stroke="#1D1D1B"
         stroke-width="2"
         stroke-miterlimit="10"
         x1="108.466"
         y1="157.663"
         x2="85.984"
         y2="145.185"
         id="line4646" /></g><g
       display="inline"
       id="g4648"><line
         fill="none"
         stroke="#1D1D1B"
         stroke-width="2"
         stroke-miterlimit="10"
         x1="85.984"
         y1="132.708"
         x2="63.501"
         y2="145.185"
         id="line4650" /><line
         fill="none"
         stroke="#1D1D1B"
         stroke-width="2"
         stroke-miterlimit="10"
         x1="85.984"
         y1="157.663"
         x2="63.501"
         y2="145.185"
         id="line4652" /></g></g><g
     id="g4654"><g
       id="g4656"><path
         style="fill:none;stroke:#1d1d1b;stroke-width:2;stroke-miterlimit:10"
         d="M 108.548,3.3989999 86.066002,15.876"
         id="line4658" /><path
         style="fill:none;stroke:#1d1d1b;stroke-width:2;stroke-miterlimit:10"
         d="M 108.548,28.354 86.066002,15.876"
         id="line4660" /></g><g
       id="g4662"><path
         style="fill:none;stroke:#1d1d1b;stroke-width:2;stroke-miterlimit:10"
         d="M 86.066002,3.3989999 63.583,15.876"
         id="line4664" /><path
         style="fill:none;stroke:#1d1d1b;stroke-width:2;stroke-miterlimit:10"
         d="M 86.066002,28.354 63.583,15.876"
         id="line4666" /></g><g
       id="g4668"><path
         style="fill:none;stroke:#1d1d1b;stroke-width:2;stroke-miterlimit:10"
         d="M 63.583017,141.65401 86.065015,154.131"
         id="line4670"
         inkscape:connector-curvature="0" /><path
         style="fill:none;stroke:#1d1d1b;stroke-width:2;stroke-miterlimit:10"
         d="M 63.583017,166.60899 86.065015,154.131"
         id="line4672"
         inkscape:connector-curvature="0" /></g><g
       id="g4674"><path
         style="fill:none;stroke:#1d1d1b;stroke-width:2;stroke-miterlimit:10"
         d="M 86.065015,141.65401 108.54802,154.131"
         id="line4676"
         inkscape:connector-curvature="0" /><path
         style="fill:none;stroke:#1d1d1b;stroke-width:2;stroke-miterlimit:10"
         d="M 86.065015,166.60899 108.54802,154.131"
         id="line4678"
         inkscape:connector-curvature="0" /></g><g
       id="g4680"><path
         style="fill:none;stroke:#1d1d1b;stroke-width:2;stroke-miterlimit:10"
         d="M 29.416,62.521016 16.938,85.004019"
         id="line4682"
         inkscape:connector-curvature="0" /><path
         style="fill:none;stroke:#1d1d1b;stroke-width:2;stroke-miterlimit:10"
         d="M 4.46,62.521016 16.938,85.004019"
         id="line4684"
         inkscape:connector-curvature="0" /></g><g
       id="g4686"><path
         style="fill:none;stroke:#1d1d1b;stroke-width:2;stroke-miterlimit:10"
         d="M 29.416,85.004019 16.938,107.48802"
         id="line4688"
         inkscape:connector-curvature="0" /><path
         style="fill:none;stroke:#1d1d1b;stroke-width:2;stroke-miterlimit:10"
         d="M 4.46,85.004019 16.938,107.48802"
         id="line4690"
         inkscape:connector-curvature="0" /></g><g
       id="g4692"><g
         id="g4694"><path
           style="fill:none;stroke:#1d1d1b;stroke-width:2;stroke-miterlimit:10"
           d="M 167.66901,107.488 155.19299,85.004997"
           id="line4696" /><path
           style="fill:none;stroke:#1d1d1b;stroke-width:2;stroke-miterlimit:10"
           d="M 142.715,107.488 155.19299,85.004997"
           id="line4698" /></g><g
         id="g4700"><path
           style="fill:none;stroke:#1d1d1b;stroke-width:2;stroke-miterlimit:10"
           d="M 167.66901,85.004997 155.19299,62.521"
           id="line4702" /><path
           style="fill:none;stroke:#1d1d1b;stroke-width:2;stroke-miterlimit:10"
           d="M 142.715,85.004997 155.19299,62.521"
           id="line4704" /></g></g><path
       style="fill:none;stroke:#1d1d1b;stroke-width:2;stroke-miterlimit:10"
       d="m 16.938,15.876 138.255,0 0,138.254 -138.255,0 z"
       id="rect4706" /><path
       style="fill:#ffffff;stroke:#1d1d1b;stroke-width:2;stroke-miterlimit:10"
       d="m 165.93099,15.876 a 10.738,10.738 0 0 1 -10.738,10.738 10.738,10.738 0 0 1 -10.738,-10.738 10.738,10.738 0 0 1 10.738,-10.7379995 10.738,10.738 0 0 1 10.738,10.7379995 z"
       id="circle4708" /><path
       style="fill:#ffffff;stroke:#1d1d1b;stroke-width:2;stroke-miterlimit:10"
       d="M 27.676,15.876 A 10.738,10.738 0 0 1 16.938,26.614 10.738,10.738 0 0 1 6.1999998,15.876 10.738,10.738 0 0 1 16.938,5.1380005 10.738,10.738 0 0 1 27.676,15.876 Z"
       id="circle4710" /><path
       style="fill:#ffffff;stroke:#1d1d1b;stroke-width:2;stroke-miterlimit:10"
       d="M 27.676,154.131 A 10.738,10.738 0 0 1 16.938,164.869 10.738,10.738 0 0 1 6.1999998,154.131 10.738,10.738 0 0 1 16.938,143.393 10.738,10.738 0 0 1 27.676,154.131 Z"
       id="circle4712" /><path
       style="fill:#ffffff;stroke:#1d1d1b;stroke-width:2;stroke-miterlimit:10"
       d="m 165.93099,154.131 a 10.738,10.738 0 0 1 -10.738,10.738 10.738,10.738 0 0 1 -10.738,-10.738 10.738,10.738 0 0 1 10.738,-10.738 10.738,10.738 0 0 1 10.738,10.738 z"
       id="circle4714" /></g></svg>