<?xml version="1.0" encoding="utf-8"?>
<!-- Generator: Adobe Illustrator 16.0.0, SVG Export Plug-In . SVG Version: 6.00 Build 0)  -->
<!DOCTYPE svg PUBLIC "-//W3C//DTD SVG 1.1//EN" "http://www.w3.org/Graphics/SVG/1.1/DTD/svg11.dtd">
<svg version="1.1" id="Livello_1" xmlns="http://www.w3.org/2000/svg" xmlns:xlink="http://www.w3.org/1999/xlink" x="0px" y="0px"
	 width="171.751px" height="148.022px" viewBox="0 0 171.751 148.022" enable-background="new 0 0 171.751 148.022"
	 xml:space="preserve">
<g display="none">
	
		<ellipse display="inline" fill="#FFFFFF" stroke="#1D1D1B" stroke-width="2" stroke-miterlimit="10" cx="85.668" cy="73.421" rx="120.47" ry="61.409"/>
	<g display="inline">
		<line fill="none" stroke="#1D1D1B" stroke-width="2" stroke-miterlimit="10" x1="63.185" y1="-0.466" x2="85.668" y2="12.011"/>
		<line fill="none" stroke="#1D1D1B" stroke-width="2" stroke-miterlimit="10" x1="63.185" y1="24.489" x2="85.668" y2="12.011"/>
	</g>
	<g display="inline">
		<line fill="none" stroke="#1D1D1B" stroke-width="2" stroke-miterlimit="10" x1="85.668" y1="-0.466" x2="108.151" y2="12.011"/>
		<line fill="none" stroke="#1D1D1B" stroke-width="2" stroke-miterlimit="10" x1="85.668" y1="24.489" x2="108.151" y2="12.011"/>
	</g>
	<g display="inline">
		<line fill="none" stroke="#1D1D1B" stroke-width="2" stroke-miterlimit="10" x1="108.151" y1="122.353" x2="85.668" y2="134.83"/>
		<line fill="none" stroke="#1D1D1B" stroke-width="2" stroke-miterlimit="10" x1="108.151" y1="147.308" x2="85.668" y2="134.83"/>
	</g>
	<g display="inline">
		<line fill="none" stroke="#1D1D1B" stroke-width="2" stroke-miterlimit="10" x1="85.668" y1="122.353" x2="63.185" y2="134.83"/>
		<line fill="none" stroke="#1D1D1B" stroke-width="2" stroke-miterlimit="10" x1="85.668" y1="147.308" x2="63.185" y2="134.83"/>
	</g>
</g>
<g display="none">
	
		<ellipse display="inline" fill="#FFFFFF" stroke="#1D1D1B" stroke-width="2" stroke-miterlimit="10" cx="85.984" cy="73.042" rx="120.47" ry="61.408"/>
	<g display="inline">
		<line fill="none" stroke="#1D1D1B" stroke-width="2" stroke-miterlimit="10" x1="63.501" y1="-0.845" x2="85.984" y2="11.632"/>
		<line fill="none" stroke="#1D1D1B" stroke-width="2" stroke-miterlimit="10" x1="63.501" y1="24.11" x2="85.984" y2="11.632"/>
	</g>
	<g display="inline">
		<line fill="none" stroke="#1D1D1B" stroke-width="2" stroke-miterlimit="10" x1="85.984" y1="-0.845" x2="108.466" y2="11.632"/>
		<line fill="none" stroke="#1D1D1B" stroke-width="2" stroke-miterlimit="10" x1="85.984" y1="24.11" x2="108.466" y2="11.632"/>
	</g>
	<g display="inline">
		<line fill="none" stroke="#1D1D1B" stroke-width="2" stroke-miterlimit="10" x1="108.466" y1="121.974" x2="85.984" y2="134.45"/>
		<line fill="none" stroke="#1D1D1B" stroke-width="2" stroke-miterlimit="10" x1="108.466" y1="146.929" x2="85.984" y2="134.45"/>
	</g>
	<g display="inline">
		<line fill="none" stroke="#1D1D1B" stroke-width="2" stroke-miterlimit="10" x1="85.984" y1="121.974" x2="63.501" y2="134.45"/>
		<line fill="none" stroke="#1D1D1B" stroke-width="2" stroke-miterlimit="10" x1="85.984" y1="146.929" x2="63.501" y2="134.45"/>
	</g>
</g>
<g display="none">
	<g display="inline">
		<line fill="none" stroke="#1D1D1B" stroke-width="2" stroke-miterlimit="10" x1="108.548" y1="-7.335" x2="86.066" y2="5.142"/>
		<line fill="none" stroke="#1D1D1B" stroke-width="2" stroke-miterlimit="10" x1="108.548" y1="17.62" x2="86.066" y2="5.142"/>
	</g>
	<g display="inline">
		<line fill="none" stroke="#1D1D1B" stroke-width="2" stroke-miterlimit="10" x1="86.066" y1="-7.335" x2="63.583" y2="5.142"/>
		<line fill="none" stroke="#1D1D1B" stroke-width="2" stroke-miterlimit="10" x1="86.066" y1="17.62" x2="63.583" y2="5.142"/>
	</g>
	<g display="inline">
		<line fill="none" stroke="#1D1D1B" stroke-width="2" stroke-miterlimit="10" x1="108.548" y1="130.92" x2="86.066" y2="143.396"/>
		
			<line fill="none" stroke="#1D1D1B" stroke-width="2" stroke-miterlimit="10" x1="108.548" y1="155.875" x2="86.066" y2="143.396"/>
	</g>
	<g display="inline">
		<line fill="none" stroke="#1D1D1B" stroke-width="2" stroke-miterlimit="10" x1="86.066" y1="130.92" x2="63.583" y2="143.396"/>
		<line fill="none" stroke="#1D1D1B" stroke-width="2" stroke-miterlimit="10" x1="86.066" y1="155.875" x2="63.583" y2="143.396"/>
	</g>
	<g display="inline">
		<line fill="none" stroke="#1D1D1B" stroke-width="2" stroke-miterlimit="10" x1="29.416" y1="96.754" x2="16.938" y2="74.271"/>
		<line fill="none" stroke="#1D1D1B" stroke-width="2" stroke-miterlimit="10" x1="4.46" y1="96.754" x2="16.938" y2="74.271"/>
	</g>
	<g display="inline">
		<line fill="none" stroke="#1D1D1B" stroke-width="2" stroke-miterlimit="10" x1="29.416" y1="74.271" x2="16.938" y2="51.787"/>
		<line fill="none" stroke="#1D1D1B" stroke-width="2" stroke-miterlimit="10" x1="4.46" y1="74.271" x2="16.938" y2="51.787"/>
	</g>
	<g display="inline">
		<g>
			
				<line fill="none" stroke="#1D1D1B" stroke-width="2" stroke-miterlimit="10" x1="167.669" y1="96.754" x2="155.193" y2="74.271"/>
			
				<line fill="none" stroke="#1D1D1B" stroke-width="2" stroke-miterlimit="10" x1="142.715" y1="96.754" x2="155.193" y2="74.271"/>
		</g>
		<g>
			
				<line fill="none" stroke="#1D1D1B" stroke-width="2" stroke-miterlimit="10" x1="167.669" y1="74.271" x2="155.193" y2="51.787"/>
			
				<line fill="none" stroke="#1D1D1B" stroke-width="2" stroke-miterlimit="10" x1="142.715" y1="74.271" x2="155.193" y2="51.787"/>
		</g>
	</g>
	
		<rect x="16.938" y="5.142" display="inline" fill="none" stroke="#1D1D1B" stroke-width="2" stroke-miterlimit="10" width="138.255" height="138.254"/>
	
		<circle display="inline" fill="#FFFFFF" stroke="#1D1D1B" stroke-width="2" stroke-miterlimit="10" cx="155.193" cy="5.142" r="10.738"/>
	
		<circle display="inline" fill="#FFFFFF" stroke="#1D1D1B" stroke-width="2" stroke-miterlimit="10" cx="16.938" cy="5.142" r="10.738"/>
	
		<circle display="inline" fill="#FFFFFF" stroke="#1D1D1B" stroke-width="2" stroke-miterlimit="10" cx="16.938" cy="143.396" r="10.738"/>
	
		<circle display="inline" fill="#FFFFFF" stroke="#1D1D1B" stroke-width="2" stroke-miterlimit="10" cx="155.193" cy="143.396" r="10.738"/>
</g>
<circle fill="none" stroke="#000000" stroke-width="2" stroke-miterlimit="10" cx="86.358" cy="73.848" r="70.708"/>
<g>
	<line fill="none" stroke="#000000" stroke-width="2" stroke-miterlimit="10" x1="144.875" y1="81.239" x2="155.159" y2="59.226"/>
	<line fill="none" stroke="#000000" stroke-width="2" stroke-miterlimit="10" x1="168.396" y1="79.601" x2="155.159" y2="59.226"/>
</g>
<g>
	<line fill="none" stroke="#000000" stroke-width="2" stroke-miterlimit="10" x1="143.321" y1="67.011" x2="151.679" y2="44.197"/>
	<line fill="none" stroke="#000000" stroke-width="2" stroke-miterlimit="10" x1="166.617" y1="63.36" x2="151.679" y2="44.197"/>
</g>
<g>
	<line fill="none" stroke="#000000" stroke-width="2" stroke-miterlimit="10" x1="144.556" y1="96.733" x2="156.191" y2="75.402"/>
	<line fill="none" stroke="#000000" stroke-width="2" stroke-miterlimit="10" x1="168.134" y1="96.563" x2="156.191" y2="75.402"/>
</g>
<circle fill="#FFFFFF" stroke="#1D1D1B" stroke-width="2" stroke-miterlimit="10" cx="15.43" cy="73.613" r="10.738"/>
</svg>
