<?xml version="1.0" encoding="UTF-8" standalone="no"?>
<!-- Created with Inkscape (http://www.inkscape.org/) -->

<svg
   xmlns:dc="http://purl.org/dc/elements/1.1/"
   xmlns:cc="http://creativecommons.org/ns#"
   xmlns:rdf="http://www.w3.org/1999/02/22-rdf-syntax-ns#"
   xmlns:svg="http://www.w3.org/2000/svg"
   xmlns="http://www.w3.org/2000/svg"
   xmlns:sodipodi="http://sodipodi.sourceforge.net/DTD/sodipodi-0.dtd"
   xmlns:inkscape="http://www.inkscape.org/namespaces/inkscape"
   width="512"
   height="512"
   viewBox="0 0 512.00001 512.00001"
   id="svg2"
   version="1.1"
   inkscape:version="0.91 r13725"
   sodipodi:docname="bundlescheme.svg">
  <sodipodi:namedview
     id="base"
     pagecolor="#ffffff"
     bordercolor="#666666"
     borderopacity="1.0"
     inkscape:pageopacity="0.0"
     inkscape:pageshadow="2"
     inkscape:zoom="1.979899"
     inkscape:cx="245.9063"
     inkscape:cy="364.50183"
     inkscape:document-units="px"
     inkscape:current-layer="layer1"
     showgrid="true"
     units="px"
     inkscape:window-width="1892"
     inkscape:window-height="1024"
     inkscape:window-x="12"
     inkscape:window-y="40"
     inkscape:window-maximized="1">
    <inkscape:grid
       spacingy="10"
       spacingx="10"
       id="grid4692"
       type="xygrid" />
  </sodipodi:namedview>
  <defs
     id="defs4" />
  <metadata
     id="metadata7">
    <rdf:RDF>
      <cc:Work
         rdf:about="">
        <dc:format>image/svg+xml</dc:format>
        <dc:type
           rdf:resource="http://purl.org/dc/dcmitype/StillImage" />
        <dc:title></dc:title>
      </cc:Work>
    </rdf:RDF>
  </metadata>
  <g
     transform="translate(0,-540.36216)"
     id="layer1"
     inkscape:groupmode="layer"
     inkscape:label="Layer 1">
    <path
       inkscape:connector-curvature="0"
       id="path4694"
       d="m 150,652.36217 100,-50 99.99999,50 -99.99999,50 -100,-50"
       style="fill:none;fill-rule:evenodd;stroke:#000000;stroke-width:1px;stroke-linecap:butt;stroke-linejoin:miter;stroke-opacity:1" />
    <path
       inkscape:connector-curvature="0"
       id="path4696"
       d="m 150,652.36217 0,149.99999"
       style="fill:none;fill-rule:evenodd;stroke:#000000;stroke-width:1px;stroke-linecap:butt;stroke-linejoin:miter;stroke-opacity:1" />
    <path
       inkscape:connector-curvature="0"
       id="path4698"
       d="m 250,702.36217 0,149.99999"
       style="fill:none;fill-rule:evenodd;stroke:#000000;stroke-width:1px;stroke-linecap:butt;stroke-linejoin:miter;stroke-opacity:1" />
    <path
       inkscape:connector-curvature="0"
       id="path4700"
       d="m 349.99999,652.36217 0,149.99999"
       style="fill:none;fill-rule:evenodd;stroke:#000000;stroke-width:1px;stroke-linecap:butt;stroke-linejoin:miter;stroke-opacity:1" />
    <path
       inkscape:connector-curvature="0"
       id="path4725"
       d="m 150,802.36216 0,30"
       style="fill:none;fill-rule:evenodd;stroke:#000000;stroke-width:1;stroke-linecap:butt;stroke-linejoin:miter;stroke-opacity:1;stroke-miterlimit:4;stroke-dasharray:3,3;stroke-dashoffset:0" />
    <path
       inkscape:connector-curvature="0"
       id="path4727"
       d="m 250,852.36216 0,30"
       style="fill:none;fill-rule:evenodd;stroke:#000000;stroke-width:1;stroke-linecap:butt;stroke-linejoin:miter;stroke-opacity:1;stroke-miterlimit:4;stroke-dasharray:3,3;stroke-dashoffset:0" />
    <path
       inkscape:connector-curvature="0"
       id="path4729"
       d="m 349.99999,802.36216 0,30"
       style="fill:none;fill-rule:evenodd;stroke:#000000;stroke-width:1;stroke-linecap:butt;stroke-linejoin:miter;stroke-opacity:1;stroke-miterlimit:4;stroke-dasharray:3,3;stroke-dashoffset:0" />
    <g
       id="g4744">
      <g
         text-anchor="start"
         word-spacing="normal"
         letter-spacing="normal"
         font-size-adjust="none"
         font-stretch="normal"
         font-weight="normal"
         font-variant="normal"
         font-style="normal"
         fill-opacity="1"
         fill-rule="evenodd"
         fill="none"
         stroke-opacity="1"
         stroke-dashoffset="0"
         stroke-dasharray="none"
         stroke-miterlimit="10.433"
         stroke-linejoin="miter"
         stroke-linecap="butt"
         stroke="black"
         xml:space="preserve"
         transform="matrix(0.731428571429,0,0,-0.731428571429,-128.0,384.0)"
         id="content"><path
           id="path4747"
           fill="black"
           stroke-width="0"
           d="M493.38,440.82 L493.38,440.84 L493.38,440.86 L493.38,440.87 L493.37,440.89 L493.37,440.91 L493.37,440.93 L493.36,440.95 L493.36,440.97 L493.35,440.99 L493.34,441.01 L493.33,441.03 L493.33,441.05 L493.31,441.07 L493.3,441.09 L493.29,441.11 L493.28,441.13 L493.26,441.15 L493.24,441.17 L493.22,441.19 L493.2,441.21 L493.18,441.22 L493.16,441.24 L493.13,441.25 L493.11,441.27 L493.08,441.28 L493.07,441.29 L493.05,441.29 L493.04,441.3 L493.02,441.3 L493,441.31 L492.99,441.31 L492.97,441.31 L492.95,441.32 L492.93,441.32 L492.91,441.32 L492.89,441.32 L492.87,441.32 L492.85,441.32 L492.83,441.32 C492.69,441.32,492.63,441.28,492.08,440.73 L488.6,436.89 C488.16,437.59,485.86,441.32,480.33,441.32 C469.22,441.32,458,430.31,458,418.76 C458,410.53,463.89,405.11,471.52,405.11 C475.85,405.11,479.63,407.09,482.27,409.39 C486.91,413.48,487.75,418.01,487.75,418.15 C487.75,418.65,487.25,418.65,487.16,418.65 C486.86,418.65,486.61,418.56,486.5,418.15 C486.07,416.71,484.91,413.17,481.47,410.28 C478.04,407.5,474.89,406.65,472.32,406.65 C467.83,406.65,462.55,409.25,462.55,417.01 C462.55,419.86,463.6,427.92,468.57,433.75 C471.61,437.29,476.3,439.78,480.72,439.78 C485.82,439.78,488.75,435.95,488.75,430.17 C488.75,428.17,488.6,428.12,488.6,427.62 C488.6,427.12,489.14,427.12,489.35,427.12 C489.99,427.12,489.99,427.23,490.24,428.12 Z " /><path
           id="path4749"
           fill="black"
           stroke-width="0"
           d="M506.43,446.36 L506.43,446.4 L506.43,446.44 L506.43,446.48 L506.43,446.52 L506.43,446.56 L506.43,446.6 L506.43,446.64 L506.43,446.67 L506.43,446.71 L506.43,446.74 L506.42,446.77 L506.42,446.8 L506.42,446.83 L506.42,446.86 L506.41,446.89 L506.41,446.91 L506.4,446.94 L506.4,446.96 L506.39,446.98 L506.39,447.01 L506.38,447.05 L506.36,447.09 L506.35,447.12 L506.33,447.15 L506.3,447.18 L506.28,447.21 L506.25,447.23 L506.22,447.25 L506.19,447.26 L506.15,447.28 L506.11,447.29 L506.07,447.3 L506.02,447.31 L505.99,447.32 L505.97,447.32 L505.94,447.32 L505.91,447.33 L505.88,447.33 L505.85,447.33 L505.82,447.33 L505.78,447.33 L505.75,447.34 L505.71,447.34 L505.68,447.34 L505.64,447.34 L505.6,447.34 L505.56,447.34 L505.52,447.34 L505.48,447.34 L505.43,447.34 L505.39,447.34 C503.15,445.14,500,445.11,498.56,445.11 V443.86 C499.4,443.86,501.7,443.86,503.61,444.82 V427.06 C503.61,425.9,503.61,425.45,500.12,425.45 H498.81 V424.2 C499.43,424.23,503.71,424.34,505.01,424.34 C506.09,424.34,510.48,424.23,511.25,424.2 V425.45 H509.92 C506.43,425.45,506.43,425.9,506.43,427.06 Z " /></g>    </g>
    <flowRoot
       xml:space="preserve"
       id="flowRoot4766"
       style="font-style:normal;font-variant:normal;font-weight:bold;font-stretch:normal;font-size:20px;line-height:125%;font-family:Arial;-inkscape-font-specification:'Arial Bold';letter-spacing:0px;word-spacing:0px;fill:#000000;fill-opacity:1;stroke:none;stroke-width:1px;stroke-linecap:butt;stroke-linejoin:miter;stroke-opacity:1"
       transform="translate(12.2481,551.72638)"><flowRegion
         id="flowRegion4768"><rect
           id="rect4770"
           width="77.781738"
           height="34.850262"
           x="167.68532"
           y="55.916126" /></flowRegion><flowPara
         id="flowPara4772"
         style="font-size:15px">$C^2$</flowPara></flowRoot>    <flowRoot
       transform="translate(153.03811,551.97891)"
       style="font-style:normal;font-variant:normal;font-weight:bold;font-stretch:normal;font-size:20px;line-height:125%;font-family:Arial;-inkscape-font-specification:'Arial Bold';letter-spacing:0px;word-spacing:0px;fill:#000000;fill-opacity:1;stroke:none;stroke-width:1px;stroke-linecap:butt;stroke-linejoin:miter;stroke-opacity:1"
       id="flowRoot4774"
       xml:space="preserve"><flowRegion
         id="flowRegion4776"><rect
           y="55.916126"
           x="167.68532"
           height="34.850262"
           width="77.781738"
           id="rect4778" /></flowRegion><flowPara
         style="font-size:15px"
         id="flowPara4780">$C^1$</flowPara></flowRoot>    <flowRoot
       transform="translate(11.966681,611.97891)"
       style="font-style:normal;font-variant:normal;font-weight:bold;font-stretch:normal;font-size:20px;line-height:125%;font-family:Arial;-inkscape-font-specification:'Arial Bold';letter-spacing:0px;word-spacing:0px;fill:#000000;fill-opacity:1;stroke:none;stroke-width:1px;stroke-linecap:butt;stroke-linejoin:miter;stroke-opacity:1"
       id="flowRoot4774-5"
       xml:space="preserve"><flowRegion
         id="flowRegion4776-6"><rect
           y="55.916126"
           x="167.68532"
           height="34.850262"
           width="77.781738"
           id="rect4778-1" /></flowRegion><flowPara
         style="font-size:15px"
         id="flowPara4780-5">$C^1$</flowPara></flowRoot>    <flowRoot
       xml:space="preserve"
       id="flowRoot4766-3"
       style="font-style:normal;font-variant:normal;font-weight:bold;font-stretch:normal;font-size:20px;line-height:125%;font-family:Arial;-inkscape-font-specification:'Arial Bold';letter-spacing:0px;word-spacing:0px;fill:#000000;fill-opacity:1;stroke:none;stroke-width:1px;stroke-linecap:butt;stroke-linejoin:miter;stroke-opacity:1"
       transform="translate(131.89095,681.72638)"><flowRegion
         id="flowRegion4768-0"><rect
           id="rect4770-3"
           width="77.781738"
           height="34.850262"
           x="167.68532"
           y="55.916126" /></flowRegion><flowPara
         id="flowPara4772-3"
         style="font-size:15px">$D^2$</flowPara></flowRoot>    <flowRoot
       xml:space="preserve"
       id="flowRoot4766-3-5"
       style="font-style:normal;font-variant:normal;font-weight:bold;font-stretch:normal;font-size:20px;line-height:125%;font-family:Arial;-inkscape-font-specification:'Arial Bold';letter-spacing:0px;word-spacing:0px;fill:#000000;fill-opacity:1;stroke:none;stroke-width:1px;stroke-linecap:butt;stroke-linejoin:miter;stroke-opacity:1"
       transform="translate(142.60524,611.36924)"><flowRegion
         id="flowRegion4768-0-7"><rect
           id="rect4770-3-5"
           width="77.781738"
           height="34.850262"
           x="167.68532"
           y="55.916126" /></flowRegion><flowPara
         id="flowPara4772-3-3"
         style="font-size:15px">$C^2$</flowPara></flowRoot>    <flowRoot
       xml:space="preserve"
       id="flowRoot4766-3-6"
       style="font-style:normal;font-variant:normal;font-weight:bold;font-stretch:normal;font-size:20px;line-height:125%;font-family:Arial;-inkscape-font-specification:'Arial Bold';letter-spacing:0px;word-spacing:0px;fill:#000000;fill-opacity:1;stroke:none;stroke-width:1px;stroke-linecap:butt;stroke-linejoin:miter;stroke-opacity:1"
       transform="translate(32.248093,681.36924)"><flowRegion
         id="flowRegion4768-0-9"><rect
           id="rect4770-3-53"
           width="77.781738"
           height="34.850262"
           x="167.68532"
           y="55.916126" /></flowRegion><flowPara
         id="flowPara4772-3-6"
         style="font-size:15px">$D^1$</flowPara></flowRoot>    <flowRoot
       transform="translate(82.323821,581.62176)"
       style="font-style:normal;font-variant:normal;font-weight:bold;font-stretch:normal;font-size:20px;line-height:125%;font-family:Arial;-inkscape-font-specification:'Arial Bold';letter-spacing:0px;word-spacing:0px;fill:#000000;fill-opacity:1;stroke:none;stroke-width:1px;stroke-linecap:butt;stroke-linejoin:miter;stroke-opacity:1"
       id="flowRoot4774-5-3"
       xml:space="preserve"><flowRegion
         id="flowRegion4776-6-8"><rect
           y="55.916126"
           x="167.68532"
           height="34.850262"
           width="77.781738"
           id="rect4778-1-1" /></flowRegion><flowPara
         style="font-size:15px"
         id="flowPara4780-5-0">$E$</flowPara></flowRoot>  </g>
</svg>
