<?xml version="1.0" encoding="UTF-8" standalone="no"?>
<!-- Created with Inkscape (http://www.inkscape.org/) -->

<svg
   xmlns:dc="http://purl.org/dc/elements/1.1/"
   xmlns:cc="http://creativecommons.org/ns#"
   xmlns:rdf="http://www.w3.org/1999/02/22-rdf-syntax-ns#"
   xmlns:svg="http://www.w3.org/2000/svg"
   xmlns="http://www.w3.org/2000/svg"
   xmlns:sodipodi="http://sodipodi.sourceforge.net/DTD/sodipodi-0.dtd"
   xmlns:inkscape="http://www.inkscape.org/namespaces/inkscape"
   width="2052.0945"
   height="1052.3622"
   viewBox="0 0 2052.0945 1052.3622"
   id="svg2"
   version="1.1"
   inkscape:version="0.91 r13725"
   sodipodi:docname="loopexpansion.svg">
  <defs
     id="defs4" />
  <sodipodi:namedview
     id="base"
     pagecolor="#ffffff"
     bordercolor="#666666"
     borderopacity="1.0"
     inkscape:pageopacity="0.0"
     inkscape:pageshadow="2"
     inkscape:zoom="1.4"
     inkscape:cx="954.37477"
     inkscape:cy="762.93169"
     inkscape:document-units="px"
     inkscape:current-layer="layer1"
     showgrid="true"
     inkscape:window-width="1892"
     inkscape:window-height="1024"
     inkscape:window-x="12"
     inkscape:window-y="40"
     inkscape:window-maximized="1"
     units="px">
    <inkscape:grid
       type="xygrid"
       id="grid4136"
       spacingx="5"
       spacingy="5.0000001" />
  </sodipodi:namedview>
  <metadata
     id="metadata7">
    <rdf:RDF>
      <cc:Work
         rdf:about="">
        <dc:format>image/svg+xml</dc:format>
        <dc:type
           rdf:resource="http://purl.org/dc/dcmitype/StillImage" />
        <dc:title></dc:title>
      </cc:Work>
    </rdf:RDF>
  </metadata>
  <g
     inkscape:label="Layer 1"
     inkscape:groupmode="layer"
     id="layer1"
     transform="translate(0,5.6872848e-5)">
    <ellipse
       style="opacity:1;fill:none;fill-opacity:1;stroke:#000000;stroke-width:2.5;stroke-linecap:round;stroke-linejoin:miter;stroke-miterlimit:4;stroke-dasharray:none;stroke-dashoffset:0;stroke-opacity:1"
       id="path4138"
       cx="100"
       cy="152.36221"
       rx="25"
       ry="50" />
    <path
       style="fill:none;fill-rule:evenodd;stroke:#000000;stroke-width:2.5;stroke-linecap:butt;stroke-linejoin:miter;stroke-miterlimit:4;stroke-dasharray:none;stroke-opacity:1"
       d="m 99.999999,202.36221 c 0,0 125.000001,0 125.000001,50"
       id="path4146"
       inkscape:connector-curvature="0" />
    <path
       style="fill:none;fill-rule:evenodd;stroke:#000000;stroke-width:2.5;stroke-linecap:butt;stroke-linejoin:miter;stroke-miterlimit:4;stroke-dasharray:none;stroke-opacity:1"
       d="m 99.999999,102.36221 c 0,0 85.371431,-19.752382 155.000001,30 40.68179,29.06875 70,30 70,30"
       id="path4148"
       inkscape:connector-curvature="0"
       sodipodi:nodetypes="csc" />
    <ellipse
       style="opacity:1;fill:none;fill-opacity:1;stroke:#000000;stroke-width:2.5;stroke-linecap:round;stroke-linejoin:miter;stroke-miterlimit:4;stroke-dasharray:none;stroke-dashoffset:0;stroke-opacity:1"
       id="path4138-1"
       cx="100.35714"
       cy="-351.87927"
       rx="25"
       ry="50"
       transform="scale(1,-1)" />
    <path
       style="fill:none;fill-rule:evenodd;stroke:#000000;stroke-width:2.5;stroke-linecap:butt;stroke-linejoin:miter;stroke-miterlimit:4;stroke-dasharray:none;stroke-opacity:1"
       d="m 100.35714,301.87928 c 0,0 125,0 125,-50"
       id="path4146-6"
       inkscape:connector-curvature="0" />
    <path
       style="fill:none;fill-rule:evenodd;stroke:#000000;stroke-width:2.5;stroke-linecap:butt;stroke-linejoin:miter;stroke-miterlimit:4;stroke-dasharray:none;stroke-opacity:1"
       d="m 100.35714,401.87928 c 0,0 85.37143,19.75238 155,-30 40.68179,-29.06875 70,-30 70,-30"
       id="path4148-6"
       inkscape:connector-curvature="0"
       sodipodi:nodetypes="csc" />
    <path
       style="fill:none;fill-rule:evenodd;stroke:#000000;stroke-width:2.5;stroke-linecap:butt;stroke-linejoin:miter;stroke-miterlimit:4;stroke-dasharray:none;stroke-opacity:1"
       d="m 550.1557,202.34308 c 0,0 -125,0 -125,50"
       id="path4146-4"
       inkscape:connector-curvature="0" />
    <path
       style="fill:none;fill-rule:evenodd;stroke:#000000;stroke-width:2.5;stroke-linecap:butt;stroke-linejoin:miter;stroke-miterlimit:4;stroke-dasharray:none;stroke-opacity:1"
       d="m 550.1557,102.34308 c 0,0 -85.37143,-19.752382 -155,30 -40.68179,29.06875 -70,30 -70,30"
       id="path4148-61"
       inkscape:connector-curvature="0"
       sodipodi:nodetypes="csc" />
    <path
       transform="scale(-1,-1)"
       style="opacity:1;fill:none;fill-opacity:1;stroke:#000000;stroke-width:2.5;stroke-linecap:round;stroke-linejoin:miter;stroke-miterlimit:4;stroke-dasharray:none;stroke-dashoffset:0;stroke-opacity:1"
       d="m -549.79852,-301.86014 c -13.80712,0 -25,-22.38576 -25,-50 0,-27.61424 11.19288,-50 25,-50"
       id="path4138-1-3"
       inkscape:connector-curvature="0"
       sodipodi:nodetypes="csc" />
    <path
       style="fill:none;fill-rule:evenodd;stroke:#000000;stroke-width:2.5;stroke-linecap:butt;stroke-linejoin:miter;stroke-miterlimit:4;stroke-dasharray:none;stroke-opacity:1"
       d="m 549.79856,301.86015 c 0,0 -125,0 -125,-50"
       id="path4146-6-8"
       inkscape:connector-curvature="0" />
    <path
       style="fill:none;fill-rule:evenodd;stroke:#000000;stroke-width:2.5;stroke-linecap:butt;stroke-linejoin:miter;stroke-miterlimit:4;stroke-dasharray:none;stroke-opacity:1"
       d="m 549.79856,401.86015 c 0,0 -85.37143,19.75238 -155,-30 -40.68179,-29.06875 -70,-30 -70,-30"
       id="path4148-6-6"
       inkscape:connector-curvature="0"
       sodipodi:nodetypes="csc" />
    <path
       style="opacity:1;fill:none;fill-opacity:1;stroke:#000000;stroke-width:2.5;stroke-linecap:round;stroke-linejoin:miter;stroke-miterlimit:4;stroke-dasharray:none;stroke-dashoffset:0;stroke-opacity:1"
       d="m 550.68241,102.21728 c 13.80712,0 25,22.38576 25,50 0,27.61424 -11.19288,50 -25,50"
       id="path4138-1-3-6"
       inkscape:connector-curvature="0"
       sodipodi:nodetypes="csc" />
    <ellipse
       style="opacity:1;fill:none;fill-opacity:1;stroke:#000000;stroke-width:2.5;stroke-linecap:round;stroke-linejoin:miter;stroke-miterlimit:4;stroke-dasharray:none;stroke-dashoffset:0;stroke-opacity:1"
       id="path4138-4"
       cx="975.37878"
       cy="152.37119"
       rx="25"
       ry="50" />
    <path
       style="fill:none;fill-rule:evenodd;stroke:#000000;stroke-width:2.5;stroke-linecap:butt;stroke-linejoin:miter;stroke-miterlimit:4;stroke-dasharray:none;stroke-opacity:1"
       d="m 975.37881,202.37119 c 0,0 124.99999,0 124.99999,50"
       id="path4146-0"
       inkscape:connector-curvature="0" />
    <path
       style="fill:none;fill-rule:evenodd;stroke:#000000;stroke-width:2.5;stroke-linecap:butt;stroke-linejoin:miter;stroke-miterlimit:4;stroke-dasharray:none;stroke-opacity:1"
       d="m 975.37881,102.37119 c 0,0 85.37139,-19.752385 154.99999,30 40.6818,29.06875 70,30 70,30"
       id="path4148-67"
       inkscape:connector-curvature="0"
       sodipodi:nodetypes="csc" />
    <ellipse
       style="opacity:1;fill:none;fill-opacity:1;stroke:#000000;stroke-width:2.5;stroke-linecap:round;stroke-linejoin:miter;stroke-miterlimit:4;stroke-dasharray:none;stroke-dashoffset:0;stroke-opacity:1"
       id="path4138-1-5"
       cx="975.7359"
       cy="-351.88828"
       rx="25"
       ry="50"
       transform="scale(1,-1)" />
    <path
       style="fill:none;fill-rule:evenodd;stroke:#000000;stroke-width:2.5;stroke-linecap:butt;stroke-linejoin:miter;stroke-miterlimit:4;stroke-dasharray:none;stroke-opacity:1"
       d="m 975.73595,301.88826 c 0,0 124.99995,0 124.99995,-50"
       id="path4146-6-9"
       inkscape:connector-curvature="0" />
    <path
       style="fill:none;fill-rule:evenodd;stroke:#000000;stroke-width:2.5;stroke-linecap:butt;stroke-linejoin:miter;stroke-miterlimit:4;stroke-dasharray:none;stroke-opacity:1"
       d="m 975.73595,401.88826 c 0,0 85.37145,19.75238 154.99995,-30 40.6818,-29.06875 70,-30 70,-30"
       id="path4148-6-9"
       inkscape:connector-curvature="0"
       sodipodi:nodetypes="csc" />
    <path
       style="fill:none;fill-rule:evenodd;stroke:#000000;stroke-width:2.5;stroke-linecap:butt;stroke-linejoin:miter;stroke-miterlimit:4;stroke-dasharray:none;stroke-opacity:1"
       d="m 1674.8202,202.35206 c 0,0 -125,0 -125,50"
       id="path4146-4-1"
       inkscape:connector-curvature="0" />
    <path
       style="fill:none;fill-rule:evenodd;stroke:#000000;stroke-width:2.5;stroke-linecap:butt;stroke-linejoin:miter;stroke-miterlimit:4;stroke-dasharray:none;stroke-opacity:1"
       d="m 1674.8202,102.35206 c 0,0 -85.3714,-19.752385 -155,30 -40.6818,29.06875 -70,30 -70,30"
       id="path4148-61-4"
       inkscape:connector-curvature="0"
       sodipodi:nodetypes="csc" />
    <path
       style="opacity:1;fill:none;fill-opacity:1;stroke:#000000;stroke-width:2.5;stroke-linecap:round;stroke-linejoin:miter;stroke-miterlimit:4;stroke-dasharray:none;stroke-dashoffset:0;stroke-opacity:1"
       d="m 1674.463,301.86912 c 13.8071,0 25,22.38576 25,50 0,27.61424 -11.1929,50 -25,50"
       id="path4138-1-3-2"
       inkscape:connector-curvature="0"
       sodipodi:nodetypes="csc" />
    <path
       style="fill:none;fill-rule:evenodd;stroke:#000000;stroke-width:2.5;stroke-linecap:butt;stroke-linejoin:miter;stroke-miterlimit:4;stroke-dasharray:none;stroke-opacity:1"
       d="m 1674.463,301.86913 c 0,0 -125,0 -125,-50"
       id="path4146-6-8-5"
       inkscape:connector-curvature="0" />
    <path
       style="fill:none;fill-rule:evenodd;stroke:#000000;stroke-width:2.5;stroke-linecap:butt;stroke-linejoin:miter;stroke-miterlimit:4;stroke-dasharray:none;stroke-opacity:1"
       d="m 1674.463,401.86913 c 0,0 -85.3714,19.75238 -155,-30 -40.6817,-29.06875 -70,-30 -70,-30"
       id="path4148-6-6-3"
       inkscape:connector-curvature="0"
       sodipodi:nodetypes="csc" />
    <path
       style="opacity:1;fill:none;fill-opacity:1;stroke:#000000;stroke-width:2.5;stroke-linecap:round;stroke-linejoin:miter;stroke-miterlimit:4;stroke-dasharray:none;stroke-dashoffset:0;stroke-opacity:1"
       d="m 1675.3469,102.22626 c 13.8071,0 25,22.38576 25,50 0,27.61424 -11.1929,50 -25,50"
       id="path4138-1-3-6-1"
       inkscape:connector-curvature="0"
       sodipodi:nodetypes="csc" />
    <path
       style="fill:none;fill-rule:evenodd;stroke:#000000;stroke-width:2.5;stroke-linecap:butt;stroke-linejoin:miter;stroke-miterlimit:4;stroke-dasharray:none;stroke-opacity:1"
       d="m 1200,162.36212 c 40,0 53.7877,-11.27859 67.1429,-21.42857 C 1285,127.36213 1300.122,122.91925 1325,122.71926"
       id="path4284"
       inkscape:connector-curvature="0"
       sodipodi:nodetypes="csc" />
    <path
       sodipodi:nodetypes="csc"
       inkscape:connector-curvature="0"
       id="path4301"
       d="m 1200,162.36212 c 40,0 53.7877,-11.27859 67.1429,-21.42857 C 1285,127.36213 1300.122,122.91925 1325,122.71926"
       style="fill:none;fill-rule:evenodd;stroke:#000000;stroke-width:2.5;stroke-linecap:butt;stroke-linejoin:miter;stroke-miterlimit:4;stroke-dasharray:none;stroke-opacity:1" />
    <path
       style="fill:none;fill-rule:evenodd;stroke:#000000;stroke-width:2.5;stroke-linecap:butt;stroke-linejoin:miter;stroke-miterlimit:4;stroke-dasharray:none;stroke-opacity:1"
       d="m 1449.5292,162.36212 c -40,0 -53.7877,-11.27859 -67.1429,-21.42857 -17.8571,-13.57142 -32.9791,-18.0143 -57.8571,-18.21429"
       id="path4303"
       inkscape:connector-curvature="0"
       sodipodi:nodetypes="csc" />
    <path
       sodipodi:nodetypes="csc"
       inkscape:connector-curvature="0"
       id="path4305"
       d="m 1199.4318,341.98553 c 40,0 53.7877,11.27859 67.1429,21.42857 17.8571,13.57142 32.9791,18.0143 57.8571,18.21429"
       style="fill:none;fill-rule:evenodd;stroke:#000000;stroke-width:2.5;stroke-linecap:butt;stroke-linejoin:miter;stroke-miterlimit:4;stroke-dasharray:none;stroke-opacity:1" />
    <path
       style="fill:none;fill-rule:evenodd;stroke:#000000;stroke-width:2.5;stroke-linecap:butt;stroke-linejoin:miter;stroke-miterlimit:4;stroke-dasharray:none;stroke-opacity:1"
       d="m 1199.4318,341.98553 c 40,0 53.7877,11.27859 67.1429,21.42857 17.8571,13.57142 32.9791,18.0143 57.8571,18.21429"
       id="path4307"
       inkscape:connector-curvature="0"
       sodipodi:nodetypes="csc" />
    <path
       sodipodi:nodetypes="csc"
       inkscape:connector-curvature="0"
       id="path4309"
       d="m 1448.961,341.98553 c -40,0 -53.7877,11.27859 -67.1429,21.42857 -17.8571,13.57142 -32.9791,18.0143 -57.8571,18.21429"
       style="fill:none;fill-rule:evenodd;stroke:#000000;stroke-width:2.5;stroke-linecap:butt;stroke-linejoin:miter;stroke-miterlimit:4;stroke-dasharray:none;stroke-opacity:1" />
    <path
       style="opacity:1;fill:none;fill-opacity:1;stroke:#000000;stroke-width:2.5;stroke-linecap:round;stroke-linejoin:miter;stroke-miterlimit:4;stroke-dasharray:none;stroke-dashoffset:0;stroke-opacity:1"
       d="m 1250,239.86133 c 0.027,4.26342 1.5078,8.49331 4.3789,12.50781 10.5783,-14.97059 38.8662,-24.98767 70.6211,-25.00781 31.7468,0.0178 60.0322,10.02777 70.6211,24.99219 2.8676,-4.00955 4.3484,-8.23402 4.3789,-12.49219"
       id="path4311"
       inkscape:connector-curvature="0"
       sodipodi:nodetypes="ccccc"
       transform="translate(0,-5.6872848e-5)" />
    <path
       style="opacity:1;fill:none;fill-opacity:1;stroke:#000000;stroke-width:2.5;stroke-linecap:round;stroke-linejoin:miter;stroke-miterlimit:4;stroke-dasharray:none;stroke-dashoffset:0;stroke-opacity:1"
       d="m 1400.1016,239.76315 c 0,20.71068 -33.5786,37.5 -75,37.5 -41.4214,0 -75,-16.78932 -75,-37.5"
       id="path4311-7"
       inkscape:connector-curvature="0"
       sodipodi:nodetypes="csc" />
    <path
       style="fill:none;fill-rule:evenodd;stroke:#000000;stroke-width:2.5;stroke-linecap:butt;stroke-linejoin:miter;stroke-miterlimit:4;stroke-dasharray:7.5, 7.5;stroke-dashoffset:0;stroke-opacity:1"
       d="m 317.85714,162.36212 c 25,0 25,90 25,90 0,0 0,90 -25,90"
       id="path4335"
       inkscape:connector-curvature="0" />
    <path
       style="fill:none;fill-rule:evenodd;stroke:#000000;stroke-width:2.5;stroke-linecap:butt;stroke-linejoin:miter;stroke-miterlimit:4;stroke-dasharray:7.5,7.5;stroke-dashoffset:0;stroke-opacity:1"
       d="m 1193.3036,162.00499 c 25,0 25,90 25,90 0,0 0,90 -25,90"
       id="path4335-9"
       inkscape:connector-curvature="0" />
    <path
       style="fill:none;fill-rule:evenodd;stroke:#000000;stroke-width:2.5;stroke-linecap:butt;stroke-linejoin:miter;stroke-miterlimit:4;stroke-dasharray:7.5,7.5;stroke-dashoffset:0;stroke-opacity:1"
       d="m 1440.6995,162.36212 c 25,0 25,90 25,90 0,0 0,89.99999 -25,89.99999"
       id="path4335-1"
       inkscape:connector-curvature="0" />
    <path
       style="fill:none;fill-rule:evenodd;stroke:#000000;stroke-width:2.5;stroke-linecap:butt;stroke-linejoin:miter;stroke-opacity:1;stroke-miterlimit:4;stroke-dasharray:7.5,7.5;stroke-dashoffset:0"
       d="m 1320,122.36212 c 25,0 30.4288,34.12113 30,55 -0.3991,19.43241 0,50 -30,50"
       id="path4358"
       inkscape:connector-curvature="0"
       sodipodi:nodetypes="csc" />
    <path
       style="fill:none;fill-rule:evenodd;stroke:#000000;stroke-width:2.5;stroke-linecap:butt;stroke-linejoin:miter;stroke-opacity:1;stroke-miterlimit:4;stroke-dasharray:7.5,7.5;stroke-dashoffset:0"
       d="m 1320.8579,276.41038 c 25,0 30.4288,34.12113 30,55 -0.3991,19.43241 0,49.99999 -30,49.99999"
       id="path4358-2"
       inkscape:connector-curvature="0"
       sodipodi:nodetypes="csc" />
    <flowRoot
       xml:space="preserve"
       id="flowRoot4375"
       style="font-style:normal;font-variant:normal;font-weight:bold;font-stretch:normal;font-size:20px;line-height:125%;font-family:Arial;-inkscape-font-specification:'Arial Bold';text-align:center;letter-spacing:0px;word-spacing:0px;text-anchor:middle;fill:#000000;fill-opacity:1;stroke:none;stroke-width:1px;stroke-linecap:butt;stroke-linejoin:miter;stroke-opacity:1"
       transform="translate(-36.631622,36.344408)"><flowRegion
         id="flowRegion4377"><rect
           id="rect4379"
           width="262.63965"
           height="143.44167"
           x="688.92401"
           y="195.75282"
           style="text-align:center;text-anchor:middle" /></flowRegion><flowPara
         id="flowPara4381">$+ \;g_s^2$</flowPara></flowRoot>    <flowRoot
       xml:space="preserve"
       id="flowRoot4375-1"
       style="font-style:normal;font-variant:normal;font-weight:bold;font-stretch:normal;font-size:20px;line-height:125%;font-family:Arial;-inkscape-font-specification:'Arial Bold';text-align:center;letter-spacing:0px;word-spacing:0px;text-anchor:middle;fill:#000000;fill-opacity:1;stroke:none;stroke-width:1px;stroke-linecap:butt;stroke-linejoin:miter;stroke-opacity:1"
       transform="translate(1055.5776,36.84424)"><flowRegion
         id="flowRegion4377-0"><rect
           id="rect4379-6"
           width="262.63965"
           height="143.44167"
           x="688.92401"
           y="195.75282"
           style="text-align:center;text-anchor:middle" /></flowRegion><flowPara
         id="flowPara4381-6">$+ \; \ldots$</flowPara></flowRoot>  </g>
</svg>
